<?xml version="1.0" encoding="utf-8"?><svg xml:space="preserve" viewBox="0 0 100 100" y="0" x="0" xmlns="http://www.w3.org/2000/svg" id="Layer_1" version="1.1" width="200px" height="200px" xmlns:xlink="http://www.w3.org/1999/xlink" style="width:100%;height:100%;background-size:initial;background-repeat-y:initial;background-repeat-x:initial;background-position-y:initial;background-position-x:initial;background-origin:initial;background-color:initial;background-clip:initial;background-attachment:initial;animation-play-state:paused" ><g class="ldl-scale" style="transform-origin:50% 50%;transform:rotate(0deg) scale(0.8, 0.8);animation-play-state:paused" ><path fill="#cccccb" d="M50.91 23.734c-.245-.267-.578-.4-.91-.4s-.666.133-.91.4L23.66 51.469c-.726.792-.164 2.07.91 2.07h17.682v21.4c0 .954.774 1.728 1.728 1.728h12.04c.954 0 1.728-.774 1.728-1.728v-21.4H75.43c1.075 0 1.636-1.277.91-2.07L50.91 23.734zm6.838 26.249h-3.556v23.129h-8.384V49.983H29.847L50 28.003l20.153 21.981H57.748z" style="fill:rgb(204, 204, 203);animation-play-state:paused" ></path>
<path d="M29.847 49.983H45.808v23.129h8.384V49.983H70.153L50 28.003z" fill="#999998" style="fill:rgb(153, 153, 152);animation-play-state:paused" ></path>
<path fill="#323232" d="M50 10.001c-22.091 0-40 17.909-40 40s17.909 40 40 40 40-17.909 40-40-17.909-40-40-40zm25.429 43.538H57.748v21.4c0 .954-.774 1.728-1.728 1.728H43.98a1.728 1.728 0 0 1-1.728-1.728v-21.4H24.571c-1.075 0-1.636-1.277-.91-2.07L49.09 23.734c.245-.267.578-.4.91-.4s.666.133.91.4l25.43 27.735c.726.792.164 2.07-.911 2.07z" style="fill:rgb(50, 50, 50);animation-play-state:paused" ></path>
<metadata xmlns:d="https://loading.io/stock/" style="animation-play-state:paused" ><d:name style="animation-play-state:paused" >up</d:name>


<d:tags style="animation-play-state:paused" >north,upload,top,direction,way,circle,up,arrow</d:tags>


<d:license style="animation-play-state:paused" >by</d:license>


<d:slug style="animation-play-state:paused" >gtx7d5</d:slug></metadata></g><!-- generated by https://loading.io/ --></svg>