<?xml version="1.0" encoding="utf-8"?><svg xml:space="preserve" viewBox="0 0 100 100" y="0" x="0" xmlns="http://www.w3.org/2000/svg" id="圖層_1" version="1.1" width="200px" height="200px" xmlns:xlink="http://www.w3.org/1999/xlink" style="width:100%;height:100%;background-size:initial;background-repeat-y:initial;background-repeat-x:initial;background-position-y:initial;background-position-x:initial;background-origin:initial;background-color:initial;background-clip:initial;background-attachment:initial;animation-play-state:paused" ><g class="ldl-scale" style="transform-origin:50% 50%;transform:rotate(0deg) scale(0.8, 0.8);animation-play-state:paused" ><path d="M27.327 63.386h45.346" stroke-miterlimit="10" stroke-width="3.5" stroke="#333" fill="none" style="stroke:rgb(51, 51, 51);animation-play-state:paused" ></path>
<path d="M50 24.114l22.673 39.272" stroke-miterlimit="10" stroke-width="3.5" stroke="#333" fill="none" style="stroke:rgb(51, 51, 51);animation-play-state:paused" ></path>
<path d="M50 22.765L27.327 63.386" stroke-miterlimit="10" stroke-width="3.5" stroke="#333" fill="none" style="stroke:rgb(51, 51, 51);animation-play-state:paused" ></path>
<circle stroke-miterlimit="10" stroke-width="3.5" stroke="#333" fill="#abbd81" r="18.327" cy="24.114" cx="50" style="stroke:rgb(51, 51, 51);fill:rgb(171, 189, 129);animation-play-state:paused" ></circle>
<circle stroke-miterlimit="10" stroke-width="3.5" stroke="#333" fill="#f5e6c8" r="5.365" cy="17.4" cx="50" style="stroke:rgb(51, 51, 51);fill:rgb(245, 230, 200);animation-play-state:paused" ></circle>
<path stroke-miterlimit="10" stroke-width="3.5" stroke="#333" fill="#f5e6c8" d="M53.866 36.085h-7.733a3.464 3.464 0 0 1-3.464-3.464v-2.525A7.33 7.33 0 0 1 50 22.765h0a7.33 7.33 0 0 1 7.331 7.331v2.525a3.464 3.464 0 0 1-3.465 3.464z" style="stroke:rgb(51, 51, 51);fill:rgb(245, 230, 200);animation-play-state:paused" ></path>
<circle stroke-miterlimit="10" stroke-width="3.5" stroke="#333" fill="#e15b64" r="18.327" cy="63.386" cx="27.327" style="stroke:rgb(51, 51, 51);fill:rgb(225, 91, 100);animation-play-state:paused" ></circle>
<circle stroke-miterlimit="10" stroke-width="3.5" stroke="#333" fill="#f5e6c8" r="5.365" cy="56.671" cx="27.327" style="stroke:rgb(51, 51, 51);fill:rgb(245, 230, 200);animation-play-state:paused" ></circle>
<path stroke-miterlimit="10" stroke-width="3.5" stroke="#333" fill="#f5e6c8" d="M31.193 75.356H23.46a3.464 3.464 0 0 1-3.464-3.464v-2.525a7.33 7.33 0 0 1 7.331-7.331h0a7.33 7.33 0 0 1 7.331 7.331v2.525a3.466 3.466 0 0 1-3.465 3.464z" style="stroke:rgb(51, 51, 51);fill:rgb(245, 230, 200);animation-play-state:paused" ></path>
<circle stroke-miterlimit="10" stroke-width="3.5" stroke="#333" fill="#77a4bd" r="18.327" cy="63.386" cx="72.673" style="stroke:rgb(51, 51, 51);fill:rgb(119, 164, 189);animation-play-state:paused" ></circle>
<circle stroke-miterlimit="10" stroke-width="3.5" stroke="#333" fill="#f5e6c8" r="5.365" cy="56.671" cx="72.673" style="stroke:rgb(51, 51, 51);fill:rgb(245, 230, 200);animation-play-state:paused" ></circle>
<path stroke-miterlimit="10" stroke-width="3.5" stroke="#333" fill="#f5e6c8" d="M76.54 75.356h-7.733a3.464 3.464 0 0 1-3.464-3.464v-2.525a7.33 7.33 0 0 1 7.331-7.331h0a7.33 7.33 0 0 1 7.331 7.331v2.525a3.466 3.466 0 0 1-3.465 3.464z" style="stroke:rgb(51, 51, 51);fill:rgb(245, 230, 200);animation-play-state:paused" ></path>
<metadata xmlns:d="https://loading.io/stock/" style="animation-play-state:paused" ><d:name style="animation-play-state:paused" >network</d:name>


<d:tags style="animation-play-state:paused" >network,social,connection,society,relationship,friendship,team,together,group,community</d:tags>


<d:license style="animation-play-state:paused" >by</d:license>


<d:slug style="animation-play-state:paused" >vvtjd</d:slug></metadata></g><!-- generated by https://loading.io/ --></svg>