<?xml version="1.0" encoding="utf-8"?><svg xml:space="preserve" viewBox="0 0 100 100" y="0" x="0" xmlns="http://www.w3.org/2000/svg" id="圖層_1" version="1.1" width="200px" height="200px" xmlns:xlink="http://www.w3.org/1999/xlink" style="width:100%;height:100%;background-size:initial;background-repeat-y:initial;background-repeat-x:initial;background-position-y:initial;background-position-x:initial;background-origin:initial;background-color:initial;background-clip:initial;background-attachment:initial;animation-play-state:paused" ><g class="ldl-scale" style="transform-origin:50% 50%;transform:rotate(0deg) scale(0.8, 0.8);animation-play-state:paused" ><path fill="#e15b64" d="M2.292 50.048c0 13.531 10.969 24.5 24.5 24.5.564 0 1.122-.026 1.677-.063h39.323c13.51 0 24.5-10.991 24.5-24.5s-10.99-24.5-24.5-24.5h-41c-.272 0-.535.032-.791.083-13.165.418-23.709 11.214-23.709 24.48z" style="fill:rgb(225, 91, 100);animation-play-state:paused" ></path>
<circle fill="#e0e0e0" r="17" cy="50.016" cx="26.792" style="fill:rgb(224, 224, 224);animation-play-state:paused" ></circle>
<g style="animation-play-state:paused" ><path fill="#fff" d="M61.159 51.373c0 1.399-.248 2.627-.742 3.682s-1.203 1.868-2.124 2.441-1.978.859-3.169.859c-1.178 0-2.23-.283-3.154-.85s-1.641-1.375-2.148-2.427-.765-2.261-.771-3.628v-.703c0-1.399.252-2.632.757-3.696s1.217-1.882 2.139-2.451 1.974-.854 3.159-.854 2.238.285 3.159.854 1.634 1.387 2.139 2.451.757 2.293.757 3.687v.635zm-2.969-.644c0-1.491-.267-2.624-.801-3.398s-1.295-1.162-2.285-1.162c-.983 0-1.742.383-2.275 1.147s-.804 1.887-.811 3.364v.693c0 1.452.267 2.578.801 3.379s1.302 1.201 2.305 1.201c.983 0 1.738-.386 2.266-1.157s.794-1.896.801-3.374v-.693z" style="fill:rgb(255, 255, 255);animation-play-state:paused" ></path>
<path fill="#fff" d="M71.843 52.35h-5.625v5.811h-2.93v-14.22h9.258v2.373h-6.328v3.672h5.625v2.364z" style="fill:rgb(255, 255, 255);animation-play-state:paused" ></path>
<path fill="#fff" d="M82.8 52.35h-5.625v5.811h-2.93v-14.22h9.258v2.373h-6.328v3.672H82.8v2.364z" style="fill:rgb(255, 255, 255);animation-play-state:paused" ></path></g>
<metadata xmlns:d="https://loading.io/stock/" style="animation-play-state:paused" ><d:name style="animation-play-state:paused" >off</d:name>
<d:tags style="animation-play-state:paused" >switch,choice,close,left,button,option,disabled,off,form</d:tags>
<d:license style="animation-play-state:paused" >pro</d:license>
<d:slug style="animation-play-state:paused" >rvd3g3</d:slug></metadata></g><!-- generated by https://loading.io/ --></svg>