<?xml version="1.0" encoding="utf-8"?><svg xml:space="preserve" viewBox="0 0 100 100" y="0" x="0" xmlns="http://www.w3.org/2000/svg" id="圖層_1" version="1.1" width="200px" height="200px" xmlns:xlink="http://www.w3.org/1999/xlink" style="width:100%;height:100%;background-size:initial;background-repeat-y:initial;background-repeat-x:initial;background-position-y:initial;background-position-x:initial;background-origin:initial;background-color:initial;background-clip:initial;background-attachment:initial;animation-play-state:paused" ><g class="ldl-scale" style="transform-origin:50% 50%;transform:rotate(0deg) scale(0.8, 0.8);animation-play-state:paused" ><path d="M76.903 84.887l-6.726-6-6.725 6-6.726-6-6.726 6-6.726-6-6.726 6-6.725-6-6.726 6V14.196h53.806V76.051z" fill="#e0e0e0" style="fill:rgb(224, 224, 224);animation-play-state:paused" ></path>
<g style="animation-play-state:paused" ><g style="animation-play-state:paused" ><path fill="#333" d="M63.244 70.366a5.817 5.817 0 0 1-3.03-.844l-2.828-1.724 1.384-2.271 2.828 1.724c1.261.769 3.048.512 3.923-.558.348-.452.489-.987.395-1.51-.106-.594-.491-1.121-1.085-1.483l-4.118-2.511.002-.002-1.101-.671c-1.236-.753-2.081-1.951-2.319-3.287-.231-1.294.106-2.592.949-3.654l.06-.075c1.716-2.164 4.973-2.693 7.414-1.205l2.391 1.457-1.384 2.271-2.391-1.457c-1.271-.775-3.078-.507-3.945.586l-.06.075c-.362.457-.51 1.002-.415 1.535.106.594.491 1.121 1.085 1.483l3.681 2.244-.002.002 1.538.938c1.235.753 2.081 1.951 2.319 3.287.227 1.273-.095 2.549-.908 3.602l-.001.001-.041.052c-1.06 1.301-2.684 1.995-4.341 1.995z" style="fill:rgb(51, 51, 51);animation-play-state:paused" ></path></g>
<g style="animation-play-state:paused" ><path d="M61.485 49.703h2.525v22.411h-2.525z" fill="#333" style="fill:rgb(51, 51, 51);animation-play-state:paused" ></path></g></g>
<path d="M31.282 23.615h37.436" stroke-miterlimit="10" stroke-width="4" stroke="#333" fill="none" style="stroke:rgb(51, 51, 51);animation-play-state:paused" ></path>
<path d="M31.282 32.615h37.436" stroke-miterlimit="10" stroke-width="4" stroke="#333" fill="none" style="stroke:rgb(51, 51, 51);animation-play-state:paused" ></path>
<path d="M31.282 41.615h37.436" stroke-miterlimit="10" stroke-width="4" stroke="#333" fill="none" style="stroke:rgb(51, 51, 51);animation-play-state:paused" ></path>
<path d="M31.282 53.115h20.551" stroke-miterlimit="10" stroke-width="4" stroke="#333" fill="none" style="stroke:rgb(51, 51, 51);animation-play-state:paused" ></path>
<path d="M31.282 61.115h20.551" stroke-miterlimit="10" stroke-width="4" stroke="#333" fill="none" style="stroke:rgb(51, 51, 51);animation-play-state:paused" ></path>
<path d="M31.282 69.115h20.551" stroke-miterlimit="10" stroke-width="4" stroke="#333" fill="none" style="stroke:rgb(51, 51, 51);animation-play-state:paused" ></path>
<metadata xmlns:d="https://loading.io/stock/" style="animation-play-state:paused" ><d:name style="animation-play-state:paused" >quotation</d:name>
<d:tags style="animation-play-state:paused" >quotation,quote,receipt,invoice,price</d:tags>
<d:license style="animation-play-state:paused" >by</d:license>
<d:slug style="animation-play-state:paused" >8lfa6o</d:slug></metadata></g><!-- generated by https://loading.io/ --></svg>