<svg xmlns:dc="http://purl.org/dc/elements/1.1/" xmlns:cc="http://creativecommons.org/ns#" xmlns:rdf="http://www.w3.org/1999/02/22-rdf-syntax-ns#" xmlns:svg="http://www.w3.org/2000/svg" xmlns="http://www.w3.org/2000/svg" xmlns:xlink="http://www.w3.org/1999/xlink" id="svg68516" viewBox="0 0 1024 768" height="768px" width="1024px" version="1.1">
  <metadata id="metadata68522">
    <rdf:rdf>
      <cc:work rdf:about="">
        <dc:format>image/svg+xml</dc:format>
        <dc:type rdf:resource="http://purl.org/dc/dcmitype/StillImage"></dc:type>
      </cc:work>
    </rdf:rdf>
  </metadata>
  <defs id="defs68520"></defs>
  <linearGradient spreadMethod="pad" y2="30%" x2="-10%" y1="120%" x1="30%" id="3d_gradient2-logo-c0911762-3932-4470-8f45-bbd37bef1b21">
    <stop id="stop68497" stop-opacity="1" stop-color="#ffffff" offset="0%"></stop>
    <stop id="stop68499" stop-opacity="1" stop-color="#000000" offset="100%"></stop>
  </linearGradient>
  <linearGradient gradientTransform="rotate(-30)" spreadMethod="pad" y2="30%" x2="-10%" y1="120%" x1="30%" id="3d_gradient3-logo-c0911762-3932-4470-8f45-bbd37bef1b21">
    <stop id="stop68502" stop-opacity="1" stop-color="#ffffff" offset="0%"></stop>
    <stop id="stop68504" stop-opacity="1" stop-color="#cccccc" offset="50%"></stop>
    <stop id="stop68506" stop-opacity="1" stop-color="#000000" offset="100%"></stop>
  </linearGradient>
  <g id="logo-group">
    <image xlink:href="" id="container" x="272" y="144" width="480" height="480" transform="translate(0 0)" style="display: none;"></image>
    <g id="logo-center" transform="translate(0 0)">
      <image xlink:href="" id="icon_container" x="0" y="0" style="display: none;"></image>
      <g id="slogan" style="font-style:normal;font-weight:400;font-size:32px;line-height:1;font-family:Montserrat;font-variant-ligatures:none;text-align:center;text-anchor:middle" transform="translate(0 0)"></g>
      <g id="title" style="font-style:normal;font-weight:800;font-size:72px;line-height:1;font-family:'Montserrat ExtraBold Alt1';font-variant-ligatures:none;text-align:center;text-anchor:middle" transform="translate(0 0)">
        <path id="path68525" style="font-style:normal;font-weight:800;font-size:72px;line-height:1;font-family:'Montserrat ExtraBold Alt1';font-variant-ligatures:none;text-align:center;text-anchor:middle" d="m 336.08994,-31.176 -13.032,23.328 0.072,7.848 h 13.104 z M 277.62594,0 h 13.176 v -6.984 l -13.176,-23.544 z m 46.728,-50.4 -17.28,29.088 -17.712,-29.088 h -11.736 l 13.176,24.408 12.888,21.024 h 6.336 l 12.96,-21.744 12.744,-23.688 z" stroke-width="0" stroke-linejoin="miter" stroke-miterlimit="2" fill="#9496a2" stroke="#9496a2" transform="translate(0 311.572) translate(182.59806500000008 44.455999999999996) scale(1.11) translate(-277.62594 50.4)"></path>
        <path id="path68527" style="font-style:normal;font-weight:800;font-size:72px;line-height:1;font-family:'Montserrat ExtraBold Alt1';font-variant-ligatures:none;text-align:center;text-anchor:middle" d="m 376.41894,-50.4 h -14.04 L 340.13094,0 h 14.544 l 3.96,-9.792 4.176,-10.512 6.48,-16.128 6.48,16.128 4.176,10.512 3.96,9.792 h 14.832 z" stroke-width="0" stroke-linejoin="miter" stroke-miterlimit="2" fill="#9496a2" stroke="#9496a2" transform="translate(0 311.572) translate(268.6286150000001 44.455999999999996) scale(1.11) translate(-340.13094 50.4)"></path>
        <path id="path68529" style="font-style:normal;font-weight:800;font-size:72px;line-height:1;font-family:'Montserrat ExtraBold Alt1';font-variant-ligatures:none;text-align:center;text-anchor:middle" d="m 438.35019,-15.84 c 3.096,-1.512 5.544,-3.6 7.272,-6.336 1.728,-2.736 2.592,-5.904 2.592,-9.576 0,-3.744 -0.936,-7.056 -2.736,-9.864 -1.872,-2.808 -4.464,-4.968 -7.776,-6.48 -3.384,-1.512 -7.344,-2.304 -11.88,-2.304 h -23.04 v 11.232 h 22.176 c 2.88,0 5.112,0.648 6.624,1.944 1.44,1.296 2.232,3.168 2.232,5.472 0,2.376 -0.792,4.176 -2.232,5.472 -1.512,1.296 -3.744,1.872 -6.624,1.872 h -22.176 V 0 h 14.256 v -13.392 h 7.776 L 433.95819,0 h 15.264 z" stroke-width="0" stroke-linejoin="miter" stroke-miterlimit="2" fill="#9496a2" stroke="#9496a2" transform="translate(0 311.572) translate(354.8215025000001 44.455999999999996) scale(1.11) translate(-402.78219 50.4)"></path>
        <path id="path68531" style="font-style:normal;font-weight:800;font-size:72px;line-height:1;font-family:'Montserrat ExtraBold Alt1';font-variant-ligatures:none;text-align:center;text-anchor:middle" d="m 470.19106,-50.4 h -14.112 v 21.456 l 14.112,-15.336 z m 14.616,22.32 20.592,-22.32 h -15.696 l -19.512,20.952 -14.112,15.192 V 0 h 14.112 v -12.6 l 5.328,-5.688 14.4,18.288 h 16.56 z" stroke-width="0" stroke-linejoin="miter" stroke-miterlimit="2" fill="#9496a2" stroke="#9496a2" transform="translate(0 311.572) translate(430.6310282000002 44.455999999999996) scale(1.11) translate(-456.07906 50.4)"></path>
        <path id="path68533" style="font-style:normal;font-weight:800;font-size:72px;line-height:1;font-family:'Montserrat ExtraBold Alt1';font-variant-ligatures:none;text-align:center;text-anchor:middle" d="m 550.17969,-50.4 h -39.96 v 11.016 h 39.96 z m 0,19.512 h -39.96 v 10.656 h 39.96 z m -39.96,19.872 V 0 h 39.96 v -11.016 z" stroke-width="0" stroke-linejoin="miter" stroke-miterlimit="2" fill="#9496a2" stroke="#9496a2" transform="translate(0 311.572) translate(507.3771275000002 44.455999999999996) scale(1.11) translate(-510.21969 50.4)"></path>
        <path id="path68535" style="font-style:normal;font-weight:800;font-size:72px;line-height:1;font-family:'Montserrat ExtraBold Alt1';font-variant-ligatures:none;text-align:center;text-anchor:middle" d="M 569.32269,-39.096 V 0 h 14.256 v -39.096 h 15.408 V -50.4 h -45.144 v 11.304 z" stroke-width="0" stroke-linejoin="miter" stroke-miterlimit="2" fill="#9496a2" stroke="#9496a2" transform="translate(0 311.572) translate(572.4486575000001 44.455999999999996) scale(1.11) translate(-553.84269 50.4)"></path>
        <path id="path68537" style="font-style:normal;font-weight:800;font-size:72px;line-height:1;font-family:'Montserrat ExtraBold Alt1';font-variant-ligatures:none;text-align:center;text-anchor:middle" d="m 604.29781,0 h 13.968 v -8.496 l -13.968,-17.784 z m 33.984,-50.4 v 9.144 l 13.968,16.848 V -50.4 Z m 0,26.856 -22.248,-26.856 h -11.736 v 6.696 l 13.968,16.848 22.248,26.856 h 11.736 v -5.832 l -13.968,-17.784 z" stroke-width="0" stroke-linejoin="miter" stroke-miterlimit="2" fill="#9496a2" stroke="#9496a2" transform="translate(0 311.572) translate(645.1038407000001 44.455999999999996) scale(1.11) translate(-604.29781 50.4)"></path>
        <path id="path68539" style="font-style:normal;font-weight:800;font-size:72px;line-height:1;font-family:'Montserrat ExtraBold Alt1';font-variant-ligatures:none;text-align:center;text-anchor:middle" d="m 702.33594,-50.4 h -39.96 v 11.016 h 39.96 z m 0,19.512 h -39.96 v 10.656 h 39.96 z m -39.96,19.872 V 0 h 39.96 v -11.016 z" stroke-width="0" stroke-linejoin="miter" stroke-miterlimit="2" fill="#9496a2" stroke="#9496a2" transform="translate(0 311.572) translate(726.2205650000001 44.455999999999996) scale(1.11) translate(-662.37594 50.4)"></path>
        <path id="path68541" style="font-style:normal;font-weight:800;font-size:72px;line-height:1;font-family:'Montserrat ExtraBold Alt1';font-variant-ligatures:none;text-align:center;text-anchor:middle" d="M 721.47894,-39.096 V 0 h 14.256 v -39.096 h 15.408 V -50.4 h -45.144 v 11.304 z" stroke-width="0" stroke-linejoin="miter" stroke-miterlimit="2" fill="#9496a2" stroke="#9496a2" transform="translate(0 311.572) translate(791.2920949999999 44.455999999999996) scale(1.11) translate(-705.99894 50.4)"></path>
      </g>
      <image xlink:href="" id="icon" x="0" y="0" style="display: none;"></image>
    </g>
  </g>
</svg>